<?xml version="1.0" encoding="utf-8"?>
<!-- Generator: Adobe Illustrator 26.0.1, SVG Export Plug-In . SVG Version: 6.00 Build 0)  -->
<svg version="1.1" id="Calque_1" xmlns="http://www.w3.org/2000/svg" xmlns:xlink="http://www.w3.org/1999/xlink" x="0px" y="0px"
	 viewBox="0 0 444 444" style="enable-background:new 0 0 444 444;" xml:space="preserve">
<style type="text/css">
	.st0{fill:#D4E1F4;}
	.st1{fill:#99732E;}
	.st2{fill:#BF9043;}
</style>
<path class="st0" d="M108,68.4h30V336h-30V68.4z"/>
<path class="st0" d="M180,12h-30c-23.2,0-42,18.8-42,42v2.4h30V54C138,30.8,156.8,12,180,12z"/>
<path class="st0" d="M138,390v-42h-30v42c0,23.2,18.8,42,42,42h30C156.8,432,138,413.2,138,390z"/>
<path class="st1" d="M244.2,384h-44.4c-3.3,0-6,2.7-6,6s2.7,6,6,6h44.4c3.3,0,6-2.7,6-6S247.5,384,244.2,384z"/>
<path class="st2" d="M150,0c-29.8,0-54,24.2-54,54v336c0,29.8,24.2,54,54,54h144c29.8,0,54-24.2,54-54V54c0-29.8-24.2-54-54-54H150z
	 M108,68.4h228V336H108V68.4z M294,432H150c-23.2,0-42-18.8-42-42v-42h228v42C336,413.2,317.2,432,294,432z M336,54v2.4H108V54
	c0-23.2,18.8-42,42-42h144C317.2,12,336,30.8,336,54z"/>
<g>
	<path class="st1" d="M134.4,258h74.4c3.3,0,6-2.7,6-6s-2.7-6-6-6h-74.4c-3.3,0-6,2.7-6,6S131.1,258,134.4,258z"/>
	<path class="st1" d="M270,258c3.3,0,6-2.7,6-6s-2.7-6-6-6h-43.6c-3.3,0-6,2.7-6,6s2.7,6,6,6H270z"/>
	<path class="st1" d="M309.6,246h-17.8c-3.3,0-6,2.7-6,6s2.7,6,6,6h17.8c3.3,0,6-2.7,6-6S312.9,246,309.6,246z"/>
	<path class="st1" d="M134.4,294h14.4c3.3,0,6-2.7,6-6s-2.7-6-6-6h-14.4c-3.3,0-6,2.7-6,6S131.1,294,134.4,294z"/>
	<path class="st1" d="M208,282h-37.6c-3.3,0-6,2.7-6,6s2.7,6,6,6H208c3.3,0,6-2.7,6-6S211.3,282,208,282z"/>
	<path class="st1" d="M229.8,294h79.8c3.3,0,6-2.7,6-6s-2.7-6-6-6h-79.8c-3.3,0-6,2.7-6,6S226.5,294,229.8,294z"/>
	<path class="st1" d="M152,153.7h14.5v61.1c0,3.3,2.7,6,6,6h99c3.3,0,6-2.7,6-6v-61.1H292c2.6,0,4.9-1.7,5.7-4.1
		c0.8-2.5-0.1-5.2-2.2-6.7l-70-51c-2.1-1.5-5-1.5-7.1,0l-70,51c-2.1,1.5-3,4.2-2.2,6.7C147.1,152,149.4,153.7,152,153.7z M222,104.2
		l51.6,37.5h-2.1c-3.3,0-6,2.7-6,6v61.1h-87v-61.1c0-3.3-2.7-6-6-6h-2.1L222,104.2z"/>
	<path class="st1" d="M222,161.8c10.6,0,19.1-8.6,19.1-19.1c0-10.6-8.6-19.1-19.1-19.1s-19.1,8.6-19.1,19.1
		C202.9,153.2,211.4,161.8,222,161.8z M222,135.6c3.9,0,7.1,3.2,7.1,7.1c0,3.9-3.2,7.1-7.1,7.1c-3.9,0-7.1-3.2-7.1-7.1
		C214.9,138.7,218.1,135.6,222,135.6z"/>
</g>
</svg>
