<?xml version="1.0" encoding="utf-8"?>
<!-- Generator: Adobe Illustrator 26.0.1, SVG Export Plug-In . SVG Version: 6.00 Build 0)  -->
<svg version="1.1" id="Layer_1" xmlns="http://www.w3.org/2000/svg" xmlns:xlink="http://www.w3.org/1999/xlink" x="0px" y="0px"
	 viewBox="0 0 512 512" style="enable-background:new 0 0 512 512;" xml:space="preserve">
<style type="text/css">
	.st0{fill:#D4E1F4;}
	.st1{fill:#BF9043;}
	.st2{fill:#99732E;}
</style>
<path class="st0" d="M34,439.3v0.7H11v27h29v-27h23v-0.7V245H34V439.3z"/>
<path class="st1" d="M61.7,217.5c6.8,0,13.5-2.1,19.1-6l52.3,54c-10,15.7-5.4,36.6,10.4,46.6c15.7,10,36.6,5.4,46.6-10.4
	c5.6-8.8,6.8-19.7,3.3-29.5l49.4-60.5c15.5,10.4,36.4,6.2,46.8-9.3c8.6-12.8,7.4-29.8-2.9-41.2L339.2,98c13.9,12.3,35.2,11,47.6-2.9
	c1.6-1.8,3-3.8,4.2-5.9l40.3,24c-8.4,16.7-1.6,37.1,15.1,45.4c16.7,8.4,37.1,1.6,45.4-15.1c8.4-16.7,1.6-37.1-15.1-45.4
	c-12.6-6.3-27.8-4.1-38.2,5.5l-43.6-26c2.7-18.5-10.1-35.6-28.6-38.2c-18.5-2.7-35.6,10.1-38.2,28.6c-0.2,1.6-0.3,3.2-0.3,4.8
	c0,5.5,1.3,10.8,3.9,15.7l-54.3,65.5c-16.5-8.7-36.9-2.4-45.6,14.1c-6,11.3-5,25.1,2.4,35.5l-47.3,57.9
	c-11.7-13.2-31.5-15.2-45.6-4.5l-51.9-53.7c10.7-15.3,6.9-36.3-8.4-47s-36.3-6.9-47,8.4s-6.9,36.3,8.4,47
	C48.1,215.4,54.8,217.5,61.7,217.5L61.7,217.5z M461.4,106.5c12,0,21.8,9.7,21.8,21.8c0,12-9.7,21.8-21.8,21.8s-21.8-9.7-21.8-21.8
	c0,0,0,0,0,0C439.7,116.2,449.4,106.5,461.4,106.5z M361.5,51c12,0,21.8,9.7,21.8,21.8s-9.7,21.8-21.8,21.8
	c-12,0-21.8-9.7-21.8-21.8c0,0,0,0,0,0C339.7,60.7,349.5,51,361.5,51z M261.6,162c12,0,21.8,9.7,21.8,21.8c0,12-9.7,21.8-21.8,21.8
	c-12,0-21.8-9.7-21.8-21.8c0,0,0,0,0,0C239.8,171.7,249.5,162,261.6,162z M161.6,261.9c12,0,21.8,9.7,21.8,21.8
	c0,12-9.7,21.8-21.8,21.8c-12,0-21.8-9.7-21.8-21.8c0,0,0,0,0,0C139.9,271.7,149.6,261.9,161.6,261.9z M61.7,162
	c12,0,21.8,9.7,21.8,21.8s-9.7,21.8-21.8,21.8c-12,0-21.8-9.7-21.8-21.8c0,0,0,0,0,0C40,171.7,49.7,162,61.7,162z"/>
<g>
	<path class="st2" d="M501,434h-7V189.8c0-3.2-2.6-5.8-5.8-5.8c0,0-0.1,0-0.1,0h-54c-3.2-0.1-5.9,2.5-6,5.8c0,0,0,0.1,0,0.1V434h-34
		V134.3c0-3.3-2.6-6.3-5.9-6.3h-54c-3.4,0.1-6.1,2.9-6.1,6.3V434h-34V245.4c0-3.3-2.5-6.4-5.8-6.4h-54c-3.4,0.2-6.1,2.9-6.2,6.4V434
		h-34v-88.7c0-3.3-2.4-6.3-5.7-6.3h-54c-3.4,0.1-6.1,2.9-6.2,6.3V434H94V245.4c0-3.5-2.9-6.3-6.4-6.4H34.3c-3.5,0-6.3,2.8-6.3,6.3
		V268c0,3.3,2.7,6,6,6s6-2.7,6-6v-17h42v183H40V310c0-3.3-2.7-6-6-6s-6,2.7-6,6v124H11c-3.2-0.2-5.8,2.3-6,5.4c0,0.1,0,0.2,0,0.2
		V467c0,3.3,2.7,6,6,6c0,0,0,0,0,0h490c3.3,0,6-2.6,6-5.9c0,0,0,0,0,0v-27.4c0-3.2-2.6-5.7-5.8-5.7C501.2,434,501.1,434,501,434
		L501,434z M440,196h42v238h-42V196z M340,140h42v294h-42V140z M240,251h42v183h-42V251z M140,351h42v83h-42V351z M495,461H17v-15
		h478V461z"/>
	<path class="st2" d="M55,281.7c3.3,0,6-2.7,6-6v-7.1c0-3.3-2.7-6-6-6s-6,2.7-6,6v7.1C49,279.1,51.7,281.7,55,281.7z"/>
	<path class="st2" d="M49,348c0,3.3,2.7,6,6,6s6-2.7,6-6v-48.4c0-3.3-2.7-6-6-6s-6,2.7-6,6V348z"/>
</g>
</svg>
