<?xml version="1.0" encoding="utf-8"?>
<!-- Generator: Adobe Illustrator 26.0.1, SVG Export Plug-In . SVG Version: 6.00 Build 0)  -->
<svg version="1.1" id="Layer_1" xmlns="http://www.w3.org/2000/svg" xmlns:xlink="http://www.w3.org/1999/xlink" x="0px" y="0px"
	 viewBox="0 0 512 512" style="enable-background:new 0 0 512 512;" xml:space="preserve">
<style type="text/css">
	.st0{fill:#D4E1F4;}
	.st1{fill:#BF9043;}
	.st2{fill:#99732E;}
</style>
<path class="st0" d="M81.9,483h30c-22,0-39.9-17.9-39.9-39.9c0,0,0,0,0-0.1V192c0-22.1,17.8-40,39.9-40c0,0,0,0,0,0h-30
	C59.9,152,42,169.9,42,192c0,0,0,0,0,0v251C42,465,59.8,483,81.9,483C81.9,483,81.9,483,81.9,483z"/>
<path class="st1" d="M141.1,305.6c-1.2,11.6-0.9,23.3,0.9,34.8l-14.3,13.7c-1.8,1.7-2.4,4.4-1.3,6.7l16.6,38c1,2.3,3.4,3.8,5.9,3.6
	l19.8-1.5c7.2,9.2,15.7,17.3,25.2,24l-0.6,19.8c-0.1,2.5,1.5,4.9,3.8,5.8l38.7,14.9c2.4,0.9,5,0.2,6.7-1.7l12.9-14.9
	c11.6,1.2,23.3,0.9,34.8-0.9l13.7,14.3c1.7,1.8,4.4,2.4,6.7,1.3l38-16.6c2.3-1,3.8-3.4,3.6-5.9l-1.5-19.8c9.2-7.2,17.3-15.7,24-25.2
	l19.8,0.6c2.5,0.1,4.9-1.5,5.8-3.8l14.9-38.7c0.9-2.4,0.2-5-1.7-6.7l-14.9-12.9c1.2-11.6,0.9-23.3-0.9-34.8l14.3-13.7
	c1.8-1.7,2.4-4.4,1.3-6.7l-16.6-38c-1-2.3-3.4-3.8-5.9-3.6l-19.8,1.5c-7.2-9.2-15.7-17.3-25.2-24l0.6-19.8c0.1-2.5-1.5-4.9-3.8-5.8
	L304,174.7c-2.4-0.9-5-0.2-6.7,1.7l-12.9,14.9c-11.6-1.2-23.3-0.9-34.8,0.9L236,177.8c-1.7-1.8-4.4-2.4-6.7-1.3l-38,16.6
	c-2.3,1-3.8,3.4-3.6,5.9l1.5,19.8c-9.2,7.2-17.3,15.7-24,25.2l-19.8-0.6c-2.5-0.1-4.8,1.5-5.8,3.8L124.6,286c-0.9,2.4-0.2,5,1.7,6.7
	L141.1,305.6z M149.2,255.6l18.8,0.6c2.1,0.1,4-0.9,5.2-2.7c6.9-10.4,15.6-19.6,25.7-27c1.7-1.2,2.6-3.2,2.4-5.3l-1.4-18.8
	l30.3-13.2l13,13.6c1.4,1.5,3.4,2.1,5.4,1.7c12.4-2.3,25-2.6,37.5-1c2,0.3,4-0.5,5.3-2l12.2-14.1l30.8,11.9l-0.6,18.8
	c-0.1,2.1,0.9,4,2.7,5.2c10.4,6.9,19.6,15.6,27,25.7c1.2,1.7,3.2,2.6,5.3,2.4l18.8-1.4l13.2,30.3l-13.6,13c-1.5,1.4-2.1,3.4-1.7,5.4
	c2.3,12.4,2.6,25,1,37.5c-0.3,2,0.5,4,2,5.3l14.1,12.2l-11.9,30.8l-18.8-0.6c-2.1-0.1-4,1-5.2,2.7c-6.9,10.4-15.6,19.6-25.7,27
	c-1.7,1.2-2.6,3.2-2.4,5.3l1.4,18.8L309.7,451l-13-13.6c-1.4-1.5-3.4-2.1-5.4-1.7c-12.4,2.3-25,2.6-37.5,1c-2-0.3-4,0.5-5.3,2
	l-12.2,14.1l-30.8-11.9l0.6-18.8c0.1-2.1-0.9-4-2.7-5.2c-10.4-6.9-19.6-15.6-27-25.7c-1.2-1.7-3.2-2.6-5.3-2.4l-18.8,1.4L139,359.8
	l13.6-13c1.5-1.4,2.1-3.4,1.7-5.4c-2.3-12.4-2.6-25-1-37.5c0.3-2-0.5-4-2-5.3l-14.1-12.2L149.2,255.6z"/>
<path class="st1" d="M270,392.5c39.5,0,71.5-32,71.5-71.5s-32-71.5-71.5-71.5s-71.5,32-71.5,71.5c0,0,0,0,0,0
	C198.5,360.5,230.5,392.5,270,392.5z M270,261.4c32.9,0,59.5,26.7,59.5,59.5s-26.7,59.5-59.5,59.5c-32.9,0-59.5-26.7-59.5-59.5
	C210.5,288.1,237.1,261.5,270,261.4L270,261.4z"/>
<path class="st1" d="M270,420.5c55,0,99.5-44.5,99.5-99.5s-44.5-99.5-99.5-99.5S170.5,266,170.5,321l0,0
	C170.5,375.9,215,420.4,270,420.5z M187.7,315h-5.1c1.2-19,8.7-37.1,21.4-51.5l3.5,3.5c2.3,2.3,6.1,2.3,8.5,0c2.3-2.3,2.3-6.1,0-8.5
	l0,0l-3.5-3.5c14.3-12.6,32.4-20.1,51.5-21.4v5.1c0,3.3,2.7,6,6,6s6-2.7,6-6v-5.1c19,1.2,37.1,8.7,51.4,21.4l-3.6,3.5
	c-2.4,2.3-2.5,6.1-0.2,8.5c2.3,2.4,6.1,2.5,8.5,0.2c0.1-0.1,0.1-0.1,0.2-0.2l3.5-3.5c12.6,14.3,20.1,32.4,21.4,51.5h-5.1
	c-3.3,0-6,2.7-6,6s2.7,6,6,6h5.1c-1.2,19-8.7,37.1-21.4,51.5l-3.5-3.5c-2.3-2.4-6.1-2.4-8.5-0.1c-2.4,2.3-2.4,6.1-0.1,8.5
	c0,0,0.1,0.1,0.1,0.1l3.6,3.5c-14.3,12.6-32.4,20.1-51.4,21.4v-5.1c0-3.3-2.7-6-6-6s-6,2.7-6,6v5.1c-19-1.2-37.1-8.7-51.5-21.4
	l3.5-3.5c2.3-2.3,2.3-6.1,0-8.5c-2.3-2.3-6.1-2.3-8.5,0l-3.5,3.5c-12.6-14.3-20.1-32.4-21.4-51.5h5.1c3.3,0,6-2.7,6-6
	S191,315,187.7,315z"/>
<path class="st1" d="M270.1,344.2c0,0-0.1,0-0.1,0s-0.1,0-0.1,0c-4.8-0.1-8.7-4-8.7-8.8c0-3.3-2.6-6-5.9-6.1c-3.3,0-6,2.6-6.1,5.9
	c0,0.1,0,0.1,0,0.2c-0.2,9.2,5.9,17.4,14.8,19.9v3.7c0,3.3,2.7,6,6,6s6-2.7,6-6v-3.7c8.9-2.5,14.9-10.7,14.8-19.9
	c0-11.5-9.3-20.8-20.8-20.8c-4.8,0-8.8-3.9-8.8-8.8s3.9-8.8,8.8-8.8c4.8,0,8.8,3.9,8.8,8.8c0,0,0,0,0,0c0,3.3,2.7,6,6,6
	c3.3,0,6-2.7,6-6c0.2-9.2-5.9-17.4-14.8-19.9v-3c0-3.3-2.7-6-6-6s-6,2.7-6,6v3c-8.9,2.5-15,10.7-14.8,19.9
	c0,11.5,9.3,20.8,20.8,20.8c4.8,0,8.8,4,8.7,8.8C278.7,340.2,274.9,344.1,270.1,344.2L270.1,344.2z"/>
<path class="st2" d="M458,146h-91v-28c0.2-20.3-16.2-36.8-36.4-37c-0.1,0-0.1,0-0.2,0H209.6c-20.3,0.1-36.6,16.5-36.6,36.8
	c0,0.1,0,0.2,0,0.2v28H81.9C56.5,146,36,166.6,36,192v251c0,25.4,20.5,46,45.9,46H458c25.4,0,46-20.6,46-46V192
	C504,166.6,483.4,146,458,146z M333,146H207v-28c0-1.7,0.9-3,2.6-3h120.8c1.5,0,2.7,1.3,2.6,2.8c0,0.1,0,0.2,0,0.2V146z M419,158
	v319H121V158H419z M185,118c-0.2-13.6,10.7-24.8,24.3-25c0.1,0,0.2,0,0.3,0h120.8c13.6,0,24.7,11.1,24.6,24.8c0,0.1,0,0.1,0,0.2v28
	h-10v-28c0.2-8.1-6.3-14.8-14.4-15c-0.1,0-0.1,0-0.2,0H209.6c-8.1,0-14.6,6.6-14.6,14.7c0,0.1,0,0.2,0,0.3v28h-10V118z M48,443V192
	c0-18.8,15.2-34,33.9-34H109v319H81.9C63.2,477,48,461.8,48,443z M492,443c0,18.8-15.2,34-34,34h-27V158h27c18.8,0,34,15.3,34,34
	V443z"/>
<path class="st2" d="M64,202c-3.3,0-6,2.7-6,6v7c0,3.3,2.7,6,6,6c3.3,0,6-2.7,6-6v-7C70,204.7,67.3,202,64,202z"/>
<path class="st2" d="M64,227c-3.3,0-6,2.7-6,6v89c0,3.3,2.7,6,6,6c3.3,0,6-2.7,6-6v-89C70,229.7,67.3,227,64,227z"/>
</svg>
