<?xml version="1.0" encoding="utf-8"?>
<!-- Generator: Adobe Illustrator 26.0.1, SVG Export Plug-In . SVG Version: 6.00 Build 0)  -->
<svg version="1.1" id="Layer_1" xmlns="http://www.w3.org/2000/svg" xmlns:xlink="http://www.w3.org/1999/xlink" x="0px" y="0px"
	 viewBox="0 0 512 512" style="enable-background:new 0 0 512 512;" xml:space="preserve">
<style type="text/css">
	.st0{fill:#D4E1F4;}
	.st1{fill:#BF9043;}
	.st2{fill:#99732E;}
</style>
<path class="st0" d="M42,408h23v-0.7V335v-42H34v42v72H11v27h31V408z"/>
<path class="st1" d="M452.7,78.1l-40.5-7c-3.3-0.5-6.4,1.7-6.9,5c-0.5,3.2,1.6,6.3,4.8,6.9l26.9,4.7L260.7,210.8l-100.3-53
	c-2.2-1.2-4.9-0.8-6.8,0.8L47.3,252.9c-2.5,2.2-2.7,6-0.5,8.5c2.2,2.5,6,2.7,8.5,0.5l103.2-91.5l99.9,52.8c2,1.1,4.4,0.9,6.2-0.4
	L443.2,97.9l-4.4,25.6c-0.6,3.3,1.6,6.4,4.9,6.9s6.4-1.6,6.9-4.9l7-40.5C458.2,81.7,456,78.6,452.7,78.1
	C452.7,78.1,452.7,78.1,452.7,78.1L452.7,78.1z"/>
<path class="st2" d="M501,402h-7V157.8c0-3.2-2.6-5.8-5.8-5.8c0,0-0.1,0-0.1,0h-54c-3.2-0.1-5.9,2.5-6,5.7c0,0,0,0.1,0,0.1V402h-34
	V222.3c0.1-3.4-2.5-6.2-5.9-6.3h-54c-3.4,0.1-6.1,2.9-6.1,6.3V402h-34V253.3c0-3.3-2.5-6.3-5.8-6.3h-54c-3.4,0.1-6.1,2.9-6.2,6.3
	V402h-34V223.3c0-3.5-2.8-6.3-6.3-6.3l0,0h-53.5c-3.4,0-6.2,2.8-6.2,6.2V291c0,3.3,2.7,6,6,6s6-2.7,6-6v-20h42v131h-42v-69
	c0-3.3-2.7-6-6-6s-6,2.7-6,6v69H94V293.3c0-3.3-2.3-6.3-5.7-6.3h-54c-3.4,0.1-6.2,2.9-6.3,6.3V402H11c-3.1-0.2-5.8,2.3-6,5.4
	c0,0.1,0,0.2,0,0.2V435c0,3.3,2.7,6,6,6c0,0,0,0,0,0h490c3.3,0,6-2.6,6-5.9c0,0,0,0,0,0v-27.4c0-3.2-2.6-5.7-5.8-5.7
	C501.2,402,501.1,402,501,402L501,402z M140,259v-30h42v30H140z M482,164v30h-42v-30H482z M440,206h42v196h-42V206z M382,228v30h-42
	v-30H382z M340,270h42v132h-42V270z M282,259v30h-42v-30H282z M240,301h42v101h-42V301z M82,299v30H40v-30H82z M40,341h42v61H40V341
	z M495,429H17v-15h478V429z"/>
</svg>
