<?xml version="1.0" encoding="utf-8"?>
<!-- Generator: Adobe Illustrator 26.0.1, SVG Export Plug-In . SVG Version: 6.00 Build 0)  -->
<svg version="1.1" id="Layer_1" xmlns="http://www.w3.org/2000/svg" xmlns:xlink="http://www.w3.org/1999/xlink" x="0px" y="0px"
	 viewBox="0 0 512 512" style="enable-background:new 0 0 512 512;" xml:space="preserve">
<style type="text/css">
	.st0{fill:#D4E1F4;}
	.st1{fill:#BF9043;}
	.st2{fill:#99732E;}
</style>
<path class="st0" d="M160,103.6v187.6c9.8,4.9,18.8,11.4,26.6,19.2c1.2,1.2,2.3,2.4,3.4,3.6V103.6c0.1-4.8,4.1-8.7,8.9-8.7h-30
	C164.1,94.9,160.1,98.8,160,103.6L160,103.6z"/>
<path class="st1" d="M113.9,303.7c-43.9,0-79.5,35.6-79.5,79.5c0,43.9,35.6,79.5,79.5,79.5c43.9,0,79.5-35.6,79.5-79.5
	C193.4,339.3,157.8,303.7,113.9,303.7L113.9,303.7z M113.9,450.7c-37.3,0-67.5-30.2-67.5-67.5s30.2-67.5,67.5-67.5
	c37.3,0,67.5,30.2,67.5,67.5c0,0,0,0,0,0C181.4,420.5,151.2,450.7,113.9,450.7z"/>
<path class="st1" d="M113.9,355.7c5.8,0,10.6,4.7,10.6,10.6c0,3.3,2.8,6,6.1,5.9c3.3,0,5.9-2.7,5.9-5.9c0-10.4-7.5-19.1-16.5-21.8
	v-3.9c0-3.3-2.7-6-6-6s-6,2.7-6,6v3.9c-9.9,2.5-16.8,11.5-16.6,21.8c0,12.5,10.1,22.6,22.5,22.6c5.8,0,10.6,4.7,10.6,10.5
	c0,5.8-4.7,10.6-10.5,10.6c0,0-0.1,0-0.1,0s-0.1,0-0.1,0c-5.8-0.1-10.4-4.8-10.5-10.6c0-3.3-2.7-6-6-6c-3.3,0-6,2.7-6,6c0,0,0,0,0,0
	c-0.2,10.2,6.7,19.2,16.6,21.8v4.7c0,3.3,2.7,6,6,6s6-2.7,6-6v-4.7c9-2.6,16.5-11.4,16.5-21.8c0-12.5-10.1-22.6-22.6-22.6
	c-5.8,0-10.6-4.7-10.6-10.6C103.4,360.4,108.1,355.7,113.9,355.7z"/>
<g>
	<path class="st2" d="M376.4,176c3.3,0,6-2.7,6-6s-2.7-6-6-6h-6.6c-3.3,0-6,2.7-6,6s2.7,6,6,6H376.4z"/>
	<path class="st2" d="M349.4,164h-96.2c-3.3,0-6,2.7-6,6s2.7,6,6,6h96.2c3.3,0,6-2.7,6-6S352.7,164,349.4,164z"/>
	<path class="st2" d="M198.3,176h34c3.3,0,6-2.7,6-6s-2.7-6-6-6h-34c-3.3,0-6,2.7-6,6S195,176,198.3,176L198.3,176z"/>
	<path class="st2" d="M352,217c0,3.3,2.7,6,6,6h18.4c3.3,0,6-2.7,6-6s-2.7-6-6-6H358C354.7,211,352,213.7,352,217L352,217z"/>
	<path class="st2" d="M313,211c-3.3,0-6,2.7-6,6s2.7,6,6,6h25.1c3.3,0,6-2.7,6-6s-2.7-6-6-6H313z"/>
	<path class="st2" d="M198.3,223h97.2c3.3,0,6-2.7,6-6s-2.7-6-6-6h-97.2c-3.3,0-6,2.7-6,6S195,223,198.3,223L198.3,223z"/>
	<path class="st2" d="M317.4,273c3.3,0,6-2.7,6-6s-2.7-6-6-6H198.3c-3.3,0-6,2.7-6,6s2.7,6,6,6H317.4z"/>
	<path class="st2" d="M216.2,307c-3.3,0-6,2.7-6,6s2.7,6,6,6h30c3.3,0,6-2.7,6-6s-2.7-6-6-6H216.2z"/>
	<path class="st2" d="M481.9,200.4c-7.1-1.5-14.5-0.5-20.9,2.9v-139c0-12.9-10.5-23.3-23.5-23.3c0,0,0,0,0,0H320.9
		c-6.1-13-18.9-21-33.6-21s-27.5,8-33.6,21H137.2C124.4,41,114,51.3,114,64c0,0.1,0,0.2,0,0.3V280h12V64.3
		c-0.1-6.1,4.8-11.2,10.9-11.3c0.1,0,0.2,0,0.3,0h113c-0.2,1.4-0.2,2.9-0.2,4.3V67h-51.7c-3.4,0-6.2,2.6-6.3,6v16H169
		c-8.2,0-14.8,6.5-14.9,14.6V291h12V103.6c0.1-1.5,1.4-2.7,2.9-2.6H192v13.9c0.1,3.4,2.9,6.1,6.3,6.1h178.1c3.3,0,5.6-2.8,5.6-6.1
		V101h23.7c1.5,0,2.3,1.1,2.3,2.6v133.9l-115.4,75.9c-0.8,0.6-1.5,1.3-1.9,2.2h0.1l-23.3,44c-1.5,2.9-0.4,6.6,2.5,8.1
		c0.9,0.5,1.8,0.7,2.8,0.7h0l51.2-1.4v0c1.1,0,2.2-0.4,3.1-1L408,313v28h-27c-12.6-0.1-22.9,10-23,22.6c0,0.2,0,0.3,0,0.5V391H216
		v12h144.2c4.4,0,8.6-1.8,11.7-4.9l43.6-43.9c3-3.1,4.7-7.3,4.6-11.7v-37.4l29-18.7v141c0,6.3-5.2,11.5-11.5,11.5H196v12h241.5
		c13,0,23.5-10.6,23.5-23.5V278.6l31.8-20.9c14.6-9.6,18.6-29.1,9-43.7C497.2,207,490.1,202.1,481.9,200.4L481.9,200.4z M370,383.3
		v-19.2c-0.2-6,4.5-11,10.5-11.1c0.2,0,0.3,0,0.5,0h19.2L370,383.3z M370,109H204V79h51.9c3.3,0,6-2.7,6.1-6V57.3
		c0-14.1,11.4-25.5,25.5-25.5S313,43.2,313,57.3V73c-0.1,3.2,2.4,5.9,5.6,6c0.1,0,0.1,0,0.2,0H370V109z M405.7,89H382V73
		c0-3.3-2.3-6-5.6-6H325v-9.7c0-1.4-0.2-2.9-0.5-4.3h113c6.3-0.1,11.4,4.9,11.5,11.2c0,0,0,0,0,0.1V211l-29,18.7V103.6
		C420,95.5,413.9,89,405.7,89z M457.6,219.7L465,231L311.9,331.5l-7.4-11.3L457.6,219.7z M296.7,330.3l16.5,25.2l-30.3,0.8
		L296.7,330.3z M325.9,352.9l-7.4-11.3L471.6,241l7.4,11.3L325.9,352.9z M488.9,245.5l-21.1-32.1c9.9-4.2,21.4,0.3,25.6,10.2
		C496.6,231.1,494.8,239.8,488.9,245.5z"/>
	<path class="st2" d="M181,114.2c-3.3,0-6,2.7-6,6v3c0,3.3,2.7,6,6,6s6-2.7,6-6v-3C187,116.9,184.3,114.2,181,114.2z"/>
	<path class="st2" d="M181,136.5c-3.3,0-6,2.7-6,6v86.7c0,3.3,2.7,6,6,6s6-2.7,6-6l0,0v-86.7C187,139.1,184.3,136.5,181,136.5z"/>
</g>
<path class="st1" d="M113.9,273.7c-60.5,0-109.5,49-109.5,109.5s49,109.5,109.5,109.5s109.5-49,109.5-109.5
	C223.4,322.8,174.4,273.8,113.9,273.7z M206.2,389h5c-1.2,21.7-9.8,42.4-24.3,58.6l-3.5-3.5c-2.4-2.3-6.2-2.3-8.5,0.1
	c-2.3,2.3-2.3,6.1,0,8.5l3.6,3.5c-16.3,14.3-36.8,22.9-58.5,24.3v-5c0-3.3-2.7-6-6-6s-6,2.7-6,6v5c-21.7-1.4-42.2-9.9-58.5-24.3
	l3.5-3.5c2.3-2.3,2.3-6.1,0-8.5s-6.1-2.3-8.5,0l0,0l-3.5,3.4c-14.5-16.2-23.1-36.9-24.3-58.6h5c3.3,0,6-2.7,6-6s-2.7-6-6-6h-5
	c1.4-21.6,9.9-42.2,24.3-58.4l3.5,3.6c2.3,2.3,6.1,2.4,8.5,0c2.3-2.3,2.4-6.1,0-8.5l-3.5-3.5c16.3-14.3,36.9-22.9,58.5-24.3v5
	c0,3.3,2.7,6,6,6s6-2.7,6-6v-5c21.6,1.4,42.2,9.9,58.5,24.3l-3.5,3.5c-2.4,2.3-2.4,6.1-0.1,8.5s6.1,2.4,8.5,0.1c0,0,0,0,0.1-0.1
	l3.5-3.6c14.3,16.2,22.9,36.8,24.3,58.4h-5c-3.3,0-6,2.7-6,6S202.8,389,206.2,389L206.2,389z"/>
</svg>
