<?xml version="1.0" encoding="utf-8"?>
<!-- Generator: Adobe Illustrator 26.0.1, SVG Export Plug-In . SVG Version: 6.00 Build 0)  -->
<svg version="1.1" id="Layer_1" xmlns="http://www.w3.org/2000/svg" xmlns:xlink="http://www.w3.org/1999/xlink" x="0px" y="0px"
	 viewBox="0 0 512 512" style="enable-background:new 0 0 512 512;" xml:space="preserve">
<style type="text/css">
	.st0{fill:#D4E1F4;}
	.st1{fill:#BF9043;}
	.st2{fill:#99732E;}
</style>
<path class="st0" d="M110.6,11h-30C61.5,11,46,26.6,46,45.7c0,0,0,0.1,0,0.1V447c-0.1,19.2,15.4,34.9,34.6,35c0,0,0,0,0,0h30
	c-19.2-0.1-34.7-15.7-34.6-34.9c0,0,0,0,0,0V45.8C75.9,26.7,91.4,11.1,110.5,11C110.6,11,110.6,11,110.6,11z"/>
<path class="st1" d="M405,377.8l-45.6,45.6l-22-22c-2.4-2.3-6.2-2.3-8.5,0.1c-2.3,2.3-2.3,6,0,8.4l26.2,26.2c2.3,2.3,6.1,2.3,8.5,0
	l49.9-49.9c2.3-2.4,2.3-6.2-0.1-8.5C411.1,375.6,407.3,375.5,405,377.8L405,377.8z"/>
<g>
	<path class="st2" d="M295,6.8c-1.1-1.1-2.7-1.8-4.2-1.8H80.6C58.2,5,40,23.3,40,45.8c0,0,0,0,0,0V447c-0.1,22.5,18.1,40.8,40.6,41
		H315v-12H80.6c-15.9-0.1-28.7-13.1-28.6-29V45.8C51.9,30,64.7,17.1,80.6,17c0,0,0,0,0.1,0H285v72.5c-0.1,20.6,16.5,37.4,37.2,37.5
		H395v188h12V120.9c-0.1-1.6-0.8-3.1-1.9-4.2L295,6.8z M297,89.5v-64l89.1,89.5h-64C308.2,114.9,296.9,103.5,297,89.5
		C297,89.5,297,89.5,297,89.5L297,89.5z"/>
	<path class="st2" d="M246.3,362H96.9c-3.3,0-6,2.7-6,6s2.7,6,6,6h149.4c3.3,0,6-2.7,6-6S249.6,362,246.3,362z"/>
	<path class="st2" d="M114,200c0-3.3-2.7-6-6-6H77c-3.3,0-6,2.7-6,6v82c0,3.3,2.7,6,6,6h31c3.3,0,6-2.7,6-6V200z M83,206h19v70H83
		V206z"/>
	<path class="st2" d="M322.4,264.8c0-33.3-21-63-52.4-74v-89.5c0-3.4-2.7-6.1-6-6.3h-30.7c-3.4,0.1-6.2,2.8-6.3,6.3V188
		c-3,0.7-6.1,1.5-9,2.6V144c0-3.3-2.7-6-6-6h-30.7c-3.4,0-6.2,2.7-6.3,6v82.3c-4,8.4-8,17.6-9,27.2v-78.8c0-3.2-2.5-5.7-5.7-5.7
		c-0.1,0-0.2,0-0.2,0h-30.7c-3.3,0-6.4,2.4-6.4,5.7v107.5c0,3.3,3.1,5.8,6.4,5.8h30.7c3.2,0.1,5.8-2.4,5.9-5.6c0-0.1,0-0.1,0-0.2
		v-6.1c2,16.7,10.1,32.1,22.2,44.3c30.7,30.7,80.5,30.7,111.2,0C314.1,305.6,322.4,285.6,322.4,264.8L322.4,264.8z M154,276h-19v-95
		h19V276z M258,107v80.5c-6.3-1.2-12.6-1.6-19-1.2V107L258,107z M187,150h19v45.9c-6.5,3.7-12.5,8.2-17.9,13.3
		c-0.3,0.3-0.1,0.7-1.1,1V150z M243.9,331.4c-36.8,0-66.6-29.8-66.6-66.6c0-33,24.2-61.1,56.9-65.9c3.3-0.5,6.6-0.7,9.9-0.7
		c17.6,0,34.5,7,46.9,19.5c26,26,26,68.2,0,94.2C278.4,324.3,261.5,331.4,243.9,331.4L243.9,331.4z"/>
	<path class="st2" d="M253.5,307.1c-14.6,3.7-30.1-0.5-40.8-11.1c-15.7-15.7-16.7-40.9-2.3-57.8c-0.1,3.2,2.5,5.8,5.7,5.9
		s5.8-2.5,5.9-5.7c0-0.1,0-0.2,0-0.4v-14.6c0-3.3-2.3-6.5-5.6-6.5h-14.6c-3.3,0-6,2.7-6,6s2.7,6,6,6h0.2c-9,11-13.9,23-13.9,36.6
		c0,30.3,24.6,54.8,54.8,54.8c4.5,0,9.1-0.6,13.5-1.7c3.2-0.8,5.1-4.1,4.3-7.3S256.7,306.2,253.5,307.1L253.5,307.1z"/>
	<path class="st2" d="M291,294h-0.9c14.6-21,12.1-50.3-6.7-69c-12.6-12.6-30.5-18.2-48.1-15.1c-3.3,0.6-5.4,3.8-4.8,7
		c0.6,3.2,3.7,5.4,6.9,4.8c23.2-4.1,45.3,11.4,49.3,34.6c1.7,9.5,0,19.4-4.6,27.9c-0.9-3.3-4.4-5.3-7.7-4.3
		c-2.6,0.7-4.4,3.1-4.6,5.8v14.6c0,3.3,3.1,5.7,6.4,5.7H291c3.3,0,6-2.7,6-6S294.3,294,291,294L291,294z"/>
	<path class="st2" d="M244.2,247c3.3,0,5.9,2.7,5.9,5.9c0,3.3,2.7,6,6,6c3.3,0,5.9-2.7,5.9-5.9c0,0,0,0,0-0.1
		c0-7.6-4.8-14.4-12-16.9v-1.6c0-3.3-2.7-6-6-6s-6,2.7-6,6v1.6c-7.1,2.5-11.9,9.3-11.8,16.9c0,9.9,8.1,17.9,18,17.9
		c3.3,0,6,2.6,6,5.9c0,3.3-2.6,6-5.9,6c0,0-0.1,0-0.1,0s-0.1,0-0.1,0c-3.2,0-5.8-2.7-5.8-5.9c0-3.3-2.7-6-6-6c-3.3,0-6,2.7-6.1,6
		c0,7.6,4.7,14.3,11.8,16.9v2.2c0,3.3,2.7,6,6,6s6-2.7,6-6v-2.2c9.3-3.3,14.3-13.5,11-22.8c-2.5-7.2-9.3-12-16.9-12
		c-3.3,0-6-2.6-6-5.9c0-3.3,2.6-6,5.9-6C244.1,247,244.1,247,244.2,247L244.2,247z"/>
	<path class="st2" d="M75,63.4c3.3,0,6-2.7,6-6v-4.3c0-3.3-2.7-6-6-6s-6,2.7-6,6v4.3C69,60.7,71.7,63.4,75,63.4z"/>
	<path class="st2" d="M69,154.4c0,3.3,2.7,6,6,6s6-2.7,6-6v-76c0-3.3-2.7-6-6-6s-6,2.7-6,6V154.4z"/>
	<path class="st2" d="M246.3,392H96.9c-3.3,0-6,2.7-6,6s2.7,6,6,6h149.4c3.3,0,6-2.7,6-6S249.6,392,246.3,392z"/>
	<path class="st2" d="M246.3,422H96.9c-3.3,0-6,2.7-6,6s2.7,6,6,6h149.4c3.3,0,6-2.7,6-6S249.6,422,246.3,422z"/>
</g>
<path class="st1" d="M472.2,406c0-55.8-45.2-101-101-101c-55.8,0-101,45.2-101,101c0,55.8,45.2,101,101,101
	C426.9,506.9,472.1,461.8,472.2,406z M371.2,495c-49.1,0-89-39.8-89-89s39.8-89,89-89s89,39.8,89,89c0,0,0,0,0,0
	C460.1,455.1,420.3,494.9,371.2,495z"/>
</svg>
