<?xml version="1.0" encoding="utf-8"?>
<!-- Generator: Adobe Illustrator 26.0.1, SVG Export Plug-In . SVG Version: 6.00 Build 0)  -->
<svg version="1.1" id="Layer_1" xmlns="http://www.w3.org/2000/svg" xmlns:xlink="http://www.w3.org/1999/xlink" x="0px" y="0px"
	 viewBox="0 0 512 512" style="enable-background:new 0 0 512 512;" xml:space="preserve">
<style type="text/css">
	.st0{fill:#D4E1F4;}
	.st1{fill:#BF9043;}
	.st2{fill:#99732E;}
</style>
<g>
	<path class="st0" d="M152.2,83.5l-3-40.4l47.6-20.8l-8-8.3l-66.6,29.1l3,40.4c-18.4,13.6-34.3,30.2-47,49.2l26.5,0.8
		C117.4,114.2,133.5,97.3,152.2,83.5L152.2,83.5z"/>
	<path class="st0" d="M43.1,389.8l26.2-1.9L41,323.2l29.1-28c-4.2-22.8-4.8-46-1.8-69L38,200.1l25.9-67l-26.7-0.8L11,200.1
		l30.3,26.2c-3,22.9-2.4,46.2,1.8,69l-29.1,28L43.1,389.8z"/>
	<path class="st0" d="M200.1,501l6.7-7.8l-47.5-18.4l1.2-40.4c-19.3-12.9-36.2-28.9-49.9-47.6L85,388.7
		c13.5,17.8,29.9,33.3,48.5,45.7l-1.2,40.4L200.1,501z"/>
</g>
<path class="st1" d="M412.9,252.8L360,140.9c-2.9-6.1-10-8.9-16.3-6.5l-22.4,8.8c-6.6,2.6-9.9,10-7.3,16.5c0.1,0.3,0.2,0.6,0.4,0.9
	l2.2,4.7l-0.4,0.2c-8.5,1.7-14.5,1.5-23.3-1l-22.4-6.2c-6.7-1.9-13.8-1.8-20.4,0.3l-21.6,6.8c-4.3,1.3-8.3,3.5-11.8,6.3
	c-5.6-1.6-11.4-2.2-17.2-1.7l1.4-2.6c3.2-6,1.1-13.4-4.7-16.9l-20.6-12.4c-6.1-3.7-14-1.7-17.7,4.4c-0.1,0.2-0.2,0.4-0.4,0.6
	L99.3,253.3c-3.3,6.1-1,13.8,5.1,17.1l20.7,11.6c1.9,1.1,4.1,1.6,6.3,1.6c1.2,0,2.5-0.2,3.7-0.5c3.3-1,6.1-3.2,7.7-6.3l2.1-4
	l7.1,5.8l-13,17.9c-6.6,9-4.6,21.7,4.5,28.2c3.5,2.5,7.6,3.9,11.9,3.9c1.1,0,2.2-0.1,3.3-0.3c0.9,5.3,3.8,10,8.2,13.1
	c3.4,2.5,7.5,3.8,11.8,3.8c1.1,0,2.2-0.1,3.3-0.3c1.6,9.7,10.1,16.9,19.9,16.9c1.1,0,2.2-0.1,3.3-0.3c0.9,5.3,3.8,10,8.2,13.1
	c9.1,6.5,21.7,4.4,28.2-4.6l4-5.5l7.6,6c9.1,7.7,22.6,6.6,30.5-2.3c2.7-3.1,4.5-6.9,5.1-11c8.1,2.3,16.8-0.3,22.3-6.6
	c2.7-3.1,4.5-6.9,5.1-11c8.1,2.3,16.8-0.3,22.3-6.6c2.5-2.9,4.2-6.5,4.9-10.3c8.5,3.1,18.1,0.7,24.1-6.1l0.3-0.3
	c7.6-8.7,6.7-22-2-29.6c-0.1-0.1-0.1-0.1-0.2-0.2l-4.5-3.8c3.1-2.1,5.8-4.6,8.3-7.3c2.4,3.2,6.2,5.1,10.2,5.1c1.8,0,3.5-0.4,5.1-1.1
	l21.8-9.4c6.5-2.8,9.5-10.3,6.7-16.8C413.1,253.1,413,252.9,412.9,252.8L412.9,252.8z M132.2,271.2c-0.1,0.2-0.3,0.4-0.5,0.4
	c-0.2,0.1-0.5,0-0.7-0.1L110.3,260c-0.4-0.2-0.5-0.7-0.3-1c0,0,0,0,0,0L168,148.8c0.1-0.2,0.3-0.4,0.5-0.4c0.1,0,0.2,0,0.3,0
	c0.2,0,0.3,0,0.5,0.1l20.6,12.4c0.4,0.2,0.5,0.7,0.3,1L132.2,271.2z M162.1,313.3c-2.7,3.7-7.8,4.5-11.5,1.9
	c-3.7-2.6-4.6-7.8-1.9-11.5c0,0,0,0,0-0.1l21.5-29.6c2.7-3.7,7.8-4.5,11.5-1.9c3.7,2.6,4.6,7.8,1.9,11.5c0,0,0,0,0,0.1L162.1,313.3z
	 M185.3,329.7L185.3,329.7l0,0.1c-2.7,3.7-7.8,4.5-11.5,1.9c-3.7-2.6-4.5-7.8-1.9-11.5c0,0,0,0,0-0.1l15.6-21.5
	c2.7-3.7,7.8-4.5,11.5-1.9c1.8,1.3,3,3.2,3.3,5.4c0.3,2.2-0.2,4.4-1.5,6.2L185.3,329.7z M208.6,346.3l-0.1,0.1
	c-2.7,3.7-7.8,4.5-11.5,1.9c-3.7-2.6-4.6-7.8-1.9-11.5c0,0,0,0,0-0.1l10.7-14.8c2.7-3.7,7.8-4.5,11.5-1.9c3.7,2.6,4.6,7.8,1.9,11.5
	c0,0,0,0,0,0.1L208.6,346.3z M237.6,354.9l-5.9,8.1c-2.7,3.7-7.8,4.5-11.6,1.9c-3.7-2.6-4.5-7.8-1.9-11.5c0,0,0,0,0-0.1l5.9-8.1
	c2.7-3.7,7.8-4.5,11.5-1.9C239.5,346,240.3,351.2,237.6,354.9C237.7,354.9,237.7,354.9,237.6,354.9L237.6,354.9z M358.5,308.4
	l-0.3,0.3c-3.5,4.1-9.7,4.5-13.8,1l-26-22.3c-2.5-2.2-6.3-1.9-8.5,0.7c-2.2,2.5-1.9,6.3,0.7,8.5l17.7,15.1c4,3.4,4.4,9.4,1,13.3
	c0,0,0,0-0.1,0.1c-3.5,4-9.6,4.5-13.7,1l-22.2-19c-2.5-2.2-6.3-1.9-8.5,0.7c0,0-0.1,0.1-0.1,0.1c-2,2.6-1.6,6.4,1,8.5l15.1,13
	c4,3.4,4.5,9.3,1.1,13.3c0,0-0.1,0.1-0.1,0.1c-3.5,4-9.6,4.5-13.7,1l-15.1-13c-2.5-2.2-6.2-2-8.5,0.4c-2.2,2.4-2.1,6.2,0.4,8.5
	c0,0,0.1,0.1,0.1,0.1l8.4,7.2c4,3.4,4.5,9.3,1.1,13.3c0,0-0.1,0.1-0.1,0.1c-3.5,4-9.6,4.5-13.7,1c-0.1,0-0.1-0.1-0.2-0.1l-9.7-7.7
	c1.9-11-5.4-21.4-16.3-23.4c-0.7-0.1-1.3-0.2-2-0.2c1.7-11-5.7-21.3-16.7-23.1c-0.5-0.1-1.1-0.1-1.6-0.2c1.7-11-5.8-21.4-16.8-23.1
	c-0.3,0-0.5-0.1-0.8-0.1c0.9-3.9,0.7-8.1-0.8-11.8c-0.8-2.3-2.1-4.3-3.7-6.1c-7.4-8.5-20.3-9.3-28.7-1.9c-1.1,1-2.1,2.1-3,3.3
	l-1.5,2l-8.4-6.9l41.7-78.6c5.1-1.4,10.4-1.8,15.6-1.3c-0.6,1.1-1.1,2.2-1.6,3.3l-6.6,16c-1.7,4.1-3.3,8.3-4.7,12.5l-6.6,20
	c-1,2.9,0.4,6.1,3.3,7.4l1.4,0.6c10.8,4.9,23.3,3.9,33.3-2.5c8.5-5.6,14.1-14.7,15.1-24.9c0-0.3,0.1-0.6,0.1-1
	c0.3-1.4,2.3-9.6,7.6-10.2l9.2,2.6c3.4,0.9,6.5,2.7,9,5.2l59.3,58.1l31,26.5C361.4,298.8,361.9,304.5,358.5,308.4
	C358.6,308.4,358.6,308.4,358.5,308.4L358.5,308.4z M351.3,274.5l-16.8-14.4l-58.8-57.7c-4-3.9-8.8-6.7-14.2-8.2l-10.1-2.8
	c-0.5-0.1-1.1-0.2-1.6-0.2c-7,0-12.9,3.9-16.7,10.9c-1.6,3-2.8,6.2-3.4,9.6l-0.2,1.6c-0.7,6.5-4.2,12.4-9.7,16
	c-5.4,3.4-12,4.5-18.1,2.9l4.8-14.5c1.3-3.9,2.8-7.9,4.3-11.7l6.6-15.9c2.7-6.4,8.1-11.2,14.7-13.2l21.6-6.8
	c4.4-1.4,9.1-1.5,13.6-0.2l22.4,6.2c10.8,3,18.8,3.3,29.5,1l2.6-1l41.5,87.2C360.2,268,356.2,271.8,351.3,274.5L351.3,274.5z
	 M402.1,258.5c-0.1,0.2-0.2,0.4-0.5,0.5l-21.8,9.4c-0.4,0.2-0.9,0-1.2-0.4l-53.5-112.4c-0.1-0.2-0.1-0.4,0-0.6
	c0.1-0.2,0.3-0.4,0.5-0.5l22.4-8.8c0.1,0,0.2-0.1,0.3-0.1c0.3,0,0.6,0.2,0.8,0.5l52.9,111.8C402.2,258.1,402.2,258.3,402.1,258.5
	L402.1,258.5z"/>
<path class="st1" d="M253.8,237.1c2.4,2.3,6.2,2.3,8.5-0.1c2.3-2.3,2.3-6,0-8.4l-3-3c-2.3-2.4-6.1-2.4-8.5-0.1
	c-2.4,2.3-2.4,6.1-0.1,8.5c0,0,0,0,0.1,0.1L253.8,237.1z"/>
<path class="st1" d="M290.6,273.8c2.3,2.3,6.1,2.3,8.5,0s2.3-6.1,0-8.5l-21.9-21.9c-2.3-2.3-6.1-2.3-8.5,0c-2.3,2.3-2.3,6.1,0,8.5
	L290.6,273.8z"/>
<path class="st2" d="M256,73C155.1,73,73,155.1,73,256s82.1,183,183,183s183-82.1,183-183S356.9,73,256,73z M256,427
	c-94.3,0-171-76.7-171-171S161.7,85,256,85s171,76.7,171,171S350.3,427,256,427z"/>
<path class="st2" d="M477,283.3c2.5-21.4,1.9-43.1-1.7-64.4l26.8-25.7c1.8-1.7,2.4-4.4,1.3-6.7l-29.1-66.6c-1-2.3-3.4-3.8-5.9-3.6
	l-37.2,2.7c-13.1-17.2-28.9-32.2-46.7-44.5l1.1-37.1c0.1-2.5-1.5-4.9-3.8-5.8L314.1,5.4c-2.4-0.9-5-0.2-6.7,1.7L283.3,35
	c-21.4-2.5-43.1-1.9-64.4,1.7L193.1,9.8c-1.7-1.8-4.4-2.4-6.7-1.3l-66.6,29.1c-2.3,1-3.8,3.4-3.6,5.9l2.7,37.2
	c-17.2,13.1-32.2,28.9-44.5,46.7l-37.1-1.1c-2.5-0.1-4.9,1.5-5.8,3.8L5.4,197.9c-0.9,2.4-0.2,5,1.7,6.7L35,228.7
	c-2.5,21.4-1.9,43.1,1.7,64.4L9.8,318.9c-1.8,1.7-2.4,4.4-1.3,6.7l29.1,66.6c1,2.3,3.4,3.8,5.9,3.6l37.2-2.7
	c13.1,17.2,28.9,32.2,46.7,44.5l-1.1,37.1c-0.1,2.5,1.5,4.9,3.8,5.8l67.8,26.2c2.4,0.9,5,0.2,6.7-1.7l24.1-27.9
	c21.4,2.5,43.1,1.9,64.4-1.7l25.7,26.8c1.7,1.8,4.4,2.4,6.7,1.3l66.6-29.1c2.3-1,3.8-3.4,3.6-5.9l-2.7-37.2
	c17.2-13.1,32.2-28.9,44.5-46.7l37.1,1.1c2.5,0.1,4.9-1.5,5.8-3.8l26.2-67.8c0.9-2.4,0.2-5-1.7-6.7L477,283.3z M470.8,373.6
	l-36.2-1.1c-2.1,0-4,1-5.2,2.7c-12.5,18.7-28.1,35.1-46.1,48.5c-1.7,1.2-2.6,3.2-2.4,5.3l2.7,36.2l-58.9,25.8l-25-26.1
	c-1.4-1.5-3.4-2.1-5.4-1.7c-22.2,4.1-44.8,4.6-67.1,1.7c-2-0.3-4,0.5-5.3,2l-23.4,27.1l-59.9-23.1l1.1-36.2c0.1-2.1-0.9-4-2.7-5.2
	c-18.7-12.5-35.1-28.1-48.5-46.1c-1.2-1.7-3.2-2.6-5.3-2.4l-36.2,2.7l-25.8-58.9l26.1-25c1.5-1.4,2.1-3.4,1.7-5.4
	C45,272,44.4,249.4,47.3,227c0.3-2-0.5-4-2-5.3l-27.1-23.4l23.1-59.9l36.2,1.1c2.1,0.1,4-0.9,5.2-2.7c12.5-18.7,28.1-35.1,46.1-48.5
	c1.7-1.2,2.6-3.2,2.4-5.3l-2.7-36.2l58.9-25.8l25,26.1c1.4,1.5,3.4,2.1,5.4,1.7c22.2-4.1,44.8-4.6,67.1-1.7c2,0.3,4-0.5,5.3-2
	l23.4-27.1l59.9,23.1l-1.1,36.2c-0.1,2.1,0.9,4,2.7,5.2c18.7,12.5,35.1,28.1,48.5,46.1c1.2,1.7,3.2,2.6,5.3,2.4l36.2-2.7l25.8,58.9
	l-26.1,25c-1.5,1.4-2.1,3.4-1.7,5.4c4.1,22.2,4.6,44.8,1.7,67.1c-0.3,2,0.5,4,2,5.3l27.1,23.4L470.8,373.6z"/>
</svg>
