<?xml version="1.0" encoding="utf-8"?>
<!-- Generator: Adobe Illustrator 26.0.1, SVG Export Plug-In . SVG Version: 6.00 Build 0)  -->
<svg version="1.1" id="Calque_1" xmlns="http://www.w3.org/2000/svg" xmlns:xlink="http://www.w3.org/1999/xlink" x="0px" y="0px"
	 viewBox="0 0 400 400" style="enable-background:new 0 0 400 400;" xml:space="preserve">
<style type="text/css">
	.st0{fill:#D4E1F4;}
	.st1{fill:#99732E;}
	.st2{fill:#1AE5BE;}
	.st3{fill:#BF9043;}
</style>
<path class="st0" d="M80.4,326.7c0-2.6,1.2-5.1,3.2-6.8c2.1-6,6.8-10.8,12.8-12.9c-0.3-0.1-0.5-0.2-0.8-0.3V134.9l108.9-79.3
	l-15-10.9L65.7,134.9v171.8C74.5,309.4,80.4,317.5,80.4,326.7z"/>
<path class="st0" d="M175.6,356.3h2.2c-0.5-2.1-1.2-4.1-2.2-6V356.3z"/>
<path class="st1" d="M189.6,134.6c14.3,0,26-11.6,26-26s-11.6-26-26-26c-14.3,0-26,11.6-26,26C163.6,122.9,175.3,134.5,189.6,134.6z
	 M189.6,94.6c7.7,0,14,6.3,14,14c0,7.7-6.3,14-14,14c-7.7,0-14-6.3-14-14C175.6,100.9,181.9,94.6,189.6,94.6z"/>
<path class="st2" d="M147.9,356.3H12.4c-0.5,2-0.7,4-0.7,6c0,3.3,2.7,6,6,6h124.9c3.3,0,6-2.7,6-6
	C148.6,360.2,148.3,358.2,147.9,356.3z"/>
<path class="st1" d="M384,292.1c-4.8,0-9.4,2.2-12.4,5.9c-3,3.8-4.2,8.7-3.2,13.4l-4.5,2.9v-21.9c11.7-2.8,20-13.2,20-25.3v-26.6
	c0-14.3-11.6-26-26-26c-14.3,0-26,11.6-26,26v26.6c0,12,8.3,22.5,20,25.3v33.8l-5.9-4.2c-2.7-1.9-6.4-1.3-8.4,1.4
	c-1.9,2.7-1.3,6.4,1.4,8.4l12.9,9.2v21.3c0,3.3,2.7,6,6,6c3.3,0,6-2.7,6-6v-33.7l11.3-7.1c5.7,3.8,13.2,3.6,18.6-0.6
	c5.4-4.2,7.6-11.3,5.4-17.8C397,296.5,390.9,292.1,384,292.1z M343.8,267.1v-26.6c0-7.7,6.3-14,14-14c7.7,0,14,6.3,14,14v26.6
	c0,5.4-3.1,10.3-8,12.6v-5c0-3.3-2.7-6-6-6c-3.3,0-6,2.7-6,6v5C347,277.4,343.9,272.5,343.8,267.1z M384,312.1c-2.2,0-4-1.8-4-4
	c0-2.2,1.8-4,4-4c2.2,0,4,1.8,4,4C388,310.3,386.2,312.1,384,312.1z"/>
<path class="st3" d="M389,356.3h-63.5V143.6l44.3,32.2c2.7,1.9,6.4,1.4,8.4-1.3c1.9-2.7,1.4-6.4-1.3-8.4l-51.3-37.4V53.1
	c0-3.3-2.7-6-6-6h-35c-3.3,0-6,2.7-6,6v41.5l-85.4-62.2c-2.1-1.5-5-1.5-7.1,0L2.4,166.2c-2.6,2-3.1,5.7-1.2,8.3
	c1.9,2.6,5.6,3.3,8.3,1.4l44.3-32.2v162.9c1.9-0.5,3.8-0.8,5.8-0.8c2.1,0,4.2,0.3,6.2,0.9V134.9l123.9-90.2l123.9,90.2v221.3h-77.9
	V242.3c0-3.3-2.7-6-6-6h-60c-3.3,0-6,2.7-6,6v113.9H10.2c-3.3,0-6,2.7-6,6c0,3.3,2.7,6,6,6H389c3.3,0,6-2.7,6-6
	C395,358.9,392.3,356.3,389,356.3z M223.6,356.3h-48V248.3h48V356.3z M313.5,120.1l-23-16.7V59.1h23V120.1z"/>
<path class="st1" d="M122.6,336.3h-0.5c4.5-8.8,2.3-19.6-5.4-25.9c-7.7-6.3-18.7-6.3-26.4,0c-7.7,6.3-10,17-5.4,25.9h-6.6
	c3.3-6.5,3.1-14.3-0.8-20.5c-3.8-6.2-10.6-10-17.9-10c-1.9,0-3.9,0.3-5.8,0.8c-6,1.7-11,6-13.5,11.8c-2.5,5.8-2.3,12.3,0.6,17.9
	h-3.1c-12,0-22.5,8.3-25.3,20H25c2.3-4.9,7.2-8,12.6-8h84.9c5.4,0,10.3,3.1,12.6,8h12.6C145.1,344.5,134.6,336.3,122.6,336.3z
	 M59.5,335.7c-5,0-9-4-9-9c0-5,4-9,9-9c5,0,9,4,9,9C68.4,331.7,64.4,335.7,59.5,335.7z M103.4,335.7c-5,0-9-4-9-9c0-5,4-9,9-9
	c5,0,9,4,9,9C112.4,331.7,108.4,335.7,103.4,335.7z"/>
</svg>
