<?xml version="1.0" encoding="utf-8"?>
<!-- Generator: Adobe Illustrator 26.0.1, SVG Export Plug-In . SVG Version: 6.00 Build 0)  -->
<svg version="1.1" id="Calque_1" xmlns="http://www.w3.org/2000/svg" xmlns:xlink="http://www.w3.org/1999/xlink" x="0px" y="0px"
	 viewBox="0 0 439 439" style="enable-background:new 0 0 439 439;" xml:space="preserve">
<style type="text/css">
	.st0{fill:#D4E1F4;}
	.st1{fill:#99732E;}
	.st2{fill:#BF9043;}
</style>
<path class="st0" d="M399,408.3H79.5c-22.1,0-40-17.9-40-40V200.4l-20-17v204.9c0,22.1,17.9,40,40,40H379c15.7,0,30-9.2,36.4-23.5
	C410.3,407.1,404.7,408.3,399,408.3z"/>
<g>
	<path class="st1" d="M246.9,165.9L207.4,198l-14.8-17.4c-1.6-1.9-4.1-2.8-6.6-2.4c-2.5,0.4-4.5,2.2-5.3,4.6c-0.8,2.4-0.3,5,1.3,6.9
		l19.3,22.5c2.5,2.9,6.8,3.3,9.7,0.9l44.8-36.5c2-1.6,2.9-4.1,2.5-6.5c-0.4-2.5-2.1-4.6-4.4-5.4
		C251.5,163.8,248.8,164.3,246.9,165.9z"/>
	<path class="st1" d="M219.3,112.6c-42.5,0-76.9,34.4-76.9,76.9s34.4,76.9,76.9,76.9s76.9-34.4,76.9-76.9c0.1-20.4-8-40.1-22.4-54.5
		C259.3,120.6,239.7,112.5,219.3,112.6z M219.3,252.5c-34.8,0-62.9-28.2-62.9-62.9s28.2-62.9,62.9-62.9s62.9,28.2,62.9,62.9
		S254,252.5,219.3,252.5z"/>
	<path class="st1" d="M258.6,2.2C258.6,2.2,258.6,2.2,258.6,2.2c-1.4-1.4-3.2-2.2-5.1-2.2c-0.3,0-0.5,0-0.8,0.1l-0.1,0
		c-0.2,0-0.5,0-0.7,0H131.1c-21.3,0-38.6,17.3-38.7,38.7v189.4l14,11.8V38.7c0-13.6,11.1-24.7,24.7-24.7h115.4v46.9
		c0,21.3,17.3,38.6,38.7,38.7h46.9v140.3l14-11.9V92.4c0-1.9-0.7-3.6-2.1-4.9L258.6,2.2z M285.2,85.6c-13.6,0-24.7-11.1-24.7-24.7
		V23.8l61.9,61.8H285.2z"/>
</g>
<path class="st2" d="M422.4,169.1l-76.3-64.6v18.3l62.1,52.6L346.1,228l-14,11.9l-91.5,77.6c-12.3,10.5-30.3,10.5-42.6,0l-91.6-77.6
	l-14-11.8l-62.1-52.6l62.1-52.7v-18.3l-75.9,64.4c-2.5,1.2-4,3.6-4,6.3v216.9c0,25.9,21,46.9,46.9,46.9h319.6
	c25.9,0,46.9-21,46.9-46.9V175.2C426,172.6,424.6,170.3,422.4,169.1z M412,392.1c0,5.4-1.3,10.8-3.9,15.6l-95.3-96.9
	c-2.7-2.8-7.1-2.8-9.9-0.1c-2.8,2.7-2.8,7.1-0.1,9.9l96.1,97.8c-5.7,4.4-12.7,6.7-19.9,6.7H59.5c-7.2,0-14.2-2.4-20-6.7l95.6-97.8
	c2.6-2.8,2.5-7.1-0.2-9.7s-7-2.7-9.7,0l-94.7,96.8c-2.6-4.8-3.9-10.1-3.9-15.5V190.6l68.5,58l94,79.6c17.5,14.9,43.2,14.9,60.7,0
	l93.9-79.6l68.5-58.1V392.1z"/>
</svg>
